<?xml version="1.0" encoding="utf-8"?>
<svg fill="currentcolor" viewBox="0 0 100 100" width="1em" height="1em" xmlns="http://www.w3.org/2000/svg">
	<path
		d="M 59.852 82.005 C 49.963 93.046 45.713 93.144 35.596 82.115 C 27.051 72.8 17.907 64.036 9.032 55.024 C 3.568 49.475 3.515 45.623 8.951 40.149 C 19.154 29.875 29.358 19.602 39.646 9.414 C 45.456 3.66 50.242 3.726 55.918 9.422 C 66.138 19.679 76.355 29.94 86.536 40.235 C 91.875 45.634 91.931 49.351 86.709 54.701 C 77.874 63.753 68.975 72.74 59.852 82.006 M 31.215 26.865 C 25.467 32.657 19.777 38.507 13.945 44.212 C 11.583 46.523 11.239 48.423 13.737 50.915 C 23.876 61.028 33.948 71.21 43.951 81.459 C 46.634 84.208 48.795 84.19 51.483 81.434 C 61.363 71.3 71.312 61.23 81.372 51.274 C 83.944 48.727 84.133 46.698 81.564 44.144 C 71.407 34.049 61.286 23.917 51.217 13.733 C 48.615 11.102 46.461 11.434 44.039 13.963 C 40.01 18.172 35.832 22.239 31.215 26.865 Z" />
	<path
		d="M 23.921 80.881 C 26.027 83.029 28.347 84.667 29.596 86.904 C 30.665 88.819 31.357 91.754 30.627 93.614 C 30.015 95.175 27.159 96.626 25.211 96.749 C 18.931 97.145 12.611 96.872 6.306 96.921 C 2.235 96.952 0.029 94.954 -0.035 90.946 C -0.146 83.98 -0.296 76.997 0.081 70.05 C 0.189 68.079 1.715 65.048 3.229 64.584 C 5.047 64.027 8.089 65.095 9.651 66.509 C 14.564 70.952 19.031 75.887 23.92 80.882 L 23.921 80.881 Z" />
	<path
		d="M 84.025 68.101 C 84.992 67.149 85.58 66.135 86.431 65.812 C 88.31 65.097 90.673 63.856 92.181 64.462 C 93.731 65.085 95.371 67.607 95.46 69.374 C 95.826 76.664 95.728 83.985 95.577 91.289 C 95.499 95.097 93.189 96.908 89.399 96.897 C 83.253 96.878 77.084 97.202 70.975 96.731 C 68.76 96.561 65.592 94.98 64.854 93.211 C 64.073 91.338 64.907 87.799 66.36 86.165 C 71.871 79.969 77.918 74.25 84.024 68.101 L 84.025 68.101 Z" />
	<path
		d="M 77.239 20.561 C 73.379 16.636 69.578 13.123 66.259 9.202 C 65.087 7.818 64.135 4.951 64.803 3.635 C 65.641 1.986 68.196 0.374 70.104 0.254 C 76.559 -0.153 83.056 0.084 89.536 0.118 C 93.634 0.14 95.616 2.345 95.635 6.355 C 95.665 12.835 95.885 19.331 95.492 25.788 C 95.372 27.758 93.912 30.574 92.316 31.263 C 90.789 31.921 87.854 30.852 86.303 29.597 C 83.095 27.002 80.395 23.778 77.238 20.561 L 77.239 20.561 Z" />
	<path
		d="M 0.214 28.034 C 0.037 20.638 0.009 13.644 -0.055 6.651 C -0.095 2.325 2.093 0.158 6.335 0.118 C 12.663 0.058 19.009 -0.143 25.313 0.251 C 27.256 0.373 30.067 1.847 30.699 3.419 C 31.327 4.979 30.299 7.98 28.98 9.416 C 22.675 16.282 16.088 22.894 9.474 29.469 C 5.664 33.256 3.593 32.92 0.214 28.035 L 0.214 28.034 Z" />
	<path
		d="M 48.651 70.732 C 42.787 70.634 37.895 68.946 35.143 64.055 C 34.221 62.417 34.367 58.849 35.541 57.652 C 37.643 55.51 39.364 57.818 41.085 59.628 C 42.79 61.423 45.108 63.229 47.429 63.705 C 50.994 64.436 54.09 62.709 54.894 58.812 C 55.672 55.045 53.477 52.893 50.04 51.871 C 48.294 51.352 46.512 50.951 44.744 50.504 C 38.997 49.051 34.749 45.991 33.733 39.764 C 32.802 34.058 34.998 29.699 39.901 26.696 C 44.796 23.699 52.31 23.992 56.879 27.384 C 57.807 28.073 58.725 28.851 59.419 29.762 C 61.144 32.028 63.312 34.636 60.291 37.131 C 57.307 39.595 55.577 36.931 53.995 34.687 C 51.482 31.123 47.92 30.476 44.327 32.231 C 42.697 33.027 41 35.328 40.859 37.069 C 40.719 38.799 42.078 41.222 43.542 42.359 C 45.268 43.701 47.783 44.101 50.01 44.712 C 58.556 47.059 62.3 51.178 62.085 58.146 C 61.876 64.938 57.685 68.977 48.65 70.732 L 48.651 70.732 Z" />
</svg>